<svg version="1.2" xmlns="http://www.w3.org/2000/svg" viewBox="0 0 2115 2115" width="2115" height="2115">
	<title>19010747_donut1-svg</title>
	<style>
		.s0 { fill: #e9a950;stroke: #2b2b2b;stroke-miterlimit:10;stroke-width: 35.1 } 
		.s1 { fill: #c9883a } 
		.s2 { fill: none;stroke: #2b2b2b;stroke-miterlimit:10;stroke-width: 35.1 } 
		.s3 { fill: #ff69ad;stroke: #282826;stroke-miterlimit:10;stroke-width: 24.6 } 
		.s4 { fill: #d64386 } 
		.s5 { fill: none;stroke: #282826;stroke-miterlimit:10;stroke-width: 24.6 } 
		.s6 { fill: #ffffff } 
		.s7 { fill: #c43b80 } 
		.s8 { fill: #8aba15 } 
		.s9 { fill: #282826 } 
		.s10 { fill: #e8d20c } 
		.s11 { fill: #0cbee8 } 
		.s12 { fill: #e8450c } 
		.s13 { fill: #c2fffc } 
	</style>
	<g id="Layer">
		<g id="Layer">
			<path id="Layer" fill-rule="evenodd" class="s0" d="m1810.2 1066.7c0 415.8-337.1 752.9-752.8 752.9-219.7 0-417.3-94-555-244-74.6-81.4-131.6-179.3-164.9-287.5-21.5-70-33.1-144.3-33.1-221.4 0-98.8 19.1-193.3 53.8-279.8 23-57.6 53-111.7 88.9-161.3 114.5-158.1 289-270 490.1-302.2 39.1-6.3 79.2-9.5 120.2-9.5 43.2 0 85.6 3.6 126.8 10.6 218.9 37.1 405.6 168.7 516.7 351.3 44.7 73.4 77.1 155 94.6 242 9.7 48.1 14.7 98 14.7 148.9zm-752.8-235.5c-130.1 0-235.6 105.5-235.6 235.5 0 130.1 105.5 235.6 235.6 235.6 130.1 0 235.5-105.5 235.5-235.6 0-130.1-105.4-235.5-235.5-235.5z"/>
			<path id="Layer" class="s1" d="m1795.5 917.8c-17.5-87-49.9-168.6-94.6-242-84.6-139-213.1-248.5-366.2-309.2 113.2 63.5 208.3 155.4 275.6 266 44.6 73.4 77.1 155 94.6 242 9.7 48.1 14.7 98 14.7 149 0 415.7-337.1 752.8-752.9 752.8-98 0-191.7-18.7-277.7-52.9 108.9 61.2 234.6 96.1 368.4 96.1 415.7 0 752.8-337.1 752.8-752.9 0-50.9-5-100.8-14.7-148.9z"/>
			<path id="Layer" fill-rule="evenodd" class="s2" d="m1810.2 1066.7c0 415.8-337.1 752.9-752.8 752.9-219.7 0-417.3-94-555-244-74.6-81.4-131.6-179.3-164.9-287.5-21.5-70-33.1-144.3-33.1-221.4 0-98.8 19.1-193.3 53.8-279.8 23-57.6 53-111.7 88.9-161.3 114.5-158.1 289-270 490.1-302.2 39.1-6.3 79.2-9.5 120.2-9.5 43.2 0 85.6 3.6 126.8 10.6 218.9 37.1 405.6 168.7 516.7 351.3 44.7 73.4 77.1 155 94.6 242 9.7 48.1 14.7 98 14.7 148.9zm-752.8-235.5c-130.1 0-235.6 105.5-235.6 235.5 0 130.1 105.5 235.6 235.6 235.6 130.1 0 235.5-105.5 235.5-235.6 0-130.1-105.4-235.5-235.5-235.5z"/>
			<g id="Layer">
				<path id="Layer" fill-rule="evenodd" class="s3" d="m1795.5 917.8c-29 64-96.3 111.1-96.3 184.8 0 106.2 11 187.3-31 277.6-49.9 107.5-180.4 82.3-274.6 152.3-117.5 87.2-100.7 249.5-300.8 243.9-146.2-4.1-228-133.2-348.5-174.9-66.5-23-158.4-2.6-241.9-25.9-58.3-16.4-112.5-54-151.2-142.5-24.3-55.7-24.3-102.6-13.7-145 20.2-81 78.8-145.2 78.8-220.9 0-101.4-61.4-194.1-58.1-280.3 0.8-22.6 6-44.7 18-66.4 24.1-43.6 47.7-73.8 70.9-94.9 83.9-76.2 163.1-34.2 245.6-82.9 81.1-48 154.9-165.3 244.5-219.3 26.5-16 54.5-26.5 84.5-27.8 66.3-3.1 118.9 8.6 162.5 28.9 123.9 57.8 174.6 185.4 258 241.7 72.5 49 171.6 42.5 258.7 109.6 25.8 19.9 50.6 46.2 73.2 82.4 43.1 68.6 40.4 117.7 21.4 159.6zm-502.6 148.9c0-130-105.4-235.5-235.5-235.5-130.1 0-235.6 105.5-235.6 235.5 0 130.1 105.5 235.6 235.6 235.6 130.1 0 235.5-105.5 235.5-235.6z"/>
				<path id="Layer" fill-rule="evenodd" class="s4" d="m1795.5 917.8c-29 64-96.2 111.1-96.2 184.8 0 106.2 10.9 187.3-31.1 277.6-49.9 107.5-180.4 82.3-274.6 152.3-117.5 87.2-100.7 249.5-300.8 243.9-146.2-4.1-228-133.2-348.5-174.9-31.7-11-69.2-12.1-108.9-12.7q0 0 0.1 0-9.8-0.2-19.7-0.4-1.5 0-2.9-0.1-2.1 0-4.1-0.1-2.4 0-4.7-0.1-1.6 0-3.1-0.1-2.7 0-5.3-0.1-1.4-0.1-2.8-0.1-2.8-0.2-5.6-0.3-1.3 0-2.6-0.1-2.9-0.1-5.7-0.3-1.3-0.1-2.6-0.2-2.8-0.1-5.7-0.3-1.3-0.1-2.6-0.2-2.8-0.3-5.6-0.5-1.4-0.1-2.7-0.2-2.8-0.3-5.6-0.6-1.3-0.2-2.7-0.3-2.8-0.3-5.6-0.7-1.3-0.2-2.7-0.3-2.7-0.4-5.5-0.8-1.4-0.2-2.7-0.4-2.8-0.5-5.6-1-1.3-0.2-2.6-0.4-2.9-0.6-5.8-1.2-1.2-0.2-2.4-0.5-3.1-0.6-6.1-1.4-1-0.2-2-0.4-4.1-1-8.1-2.1c-58.3-16.4-112.5-54-151.2-142.5-24.3-55.7-24.3-102.6-13.7-145 20.2-81 78.8-145.2 78.8-220.9 0-101.4-61.4-194.1-58.1-280.3 0.8-22.6 6-44.7 18-66.4 24.1-43.6 47.7-73.8 70.9-94.9 83.9-76.2 163.1-34.2 245.6-82.9 81.1-48 154.9-165.3 244.5-219.3q0.3-0.2 0.6-0.3 0 0 0 0 0-0.1 0.1-0.1c26.4-15.8 54.1-26.1 83.8-27.4 66.3-3.1 118.9 8.6 162.5 28.9q6 2.8 11.8 5.8c0.9 0.5 1.7 1 2.6 1.4 2.9 1.6 5.8 3.2 8.7 4.8 1.1 0.6 2.1 1.3 3.1 1.9 2.6 1.6 5.3 3.1 7.8 4.7 1.1 0.7 2.2 1.4 3.3 2.2 2.4 1.5 4.8 3.1 7.2 4.7q1.7 1.2 3.3 2.4 3.5 2.4 6.8 4.9 1.7 1.3 3.4 2.5 3.2 2.5 6.4 5 1.7 1.4 3.3 2.7 3.1 2.6 6.2 5.1 1.6 1.5 3.3 2.9 2.9 2.6 5.8 5.2 1.7 1.5 3.3 3 2.8 2.6 5.5 5.2 1.7 1.6 3.3 3.2 2.7 2.5 5.3 5.1 1.7 1.7 3.3 3.5 2.5 2.5 4.9 5 1.8 1.9 3.5 3.7 2.3 2.4 4.5 4.9 1.9 2 3.7 4 2 2.2 4 4.5 2 2.2 4 4.5 1.7 1.9 3.3 3.8 2.4 2.7 4.7 5.4 1 1.2 2.1 2.4 5.7 6.8 11.4 13.6-0.1 0-0.1 0c36.3 43.9 68.6 86.9 108.3 113.7 72.5 49 171.6 42.5 258.7 109.6 25.8 19.9 50.6 46.2 73.2 82.4 43.1 68.6 40.4 117.7 21.4 159.6zm-185-207.9c-34.1-16.6-110.6-6.3-172.2-48.8-81.6-56.3-169.9-195-248.8-255.6-252.4-194.1-306.7 109.6-388.5 190.5-73.9 73.2-190.1-43.8-323 68-80.6 67.8-71.9 169.4-68.9 189.8 19.1 130.8 124 164.5 124 257 0 69-124 137.9-139.8 212.8-26 123 109.6 242.8 295.7 186.7 148.5-44.8 246.6 145.1 380.7 148.7 183.4 4.9 94.5-163.3 202.3-239.7 86.4-61.3 248.8-22.8 294.6-117 38.5-79.2-39.8-173.4-39.8-266.5 0-64.6 79.9-117.3 119.7-165 33.2-39.6 54.8-116.9-36-160.9z"/>
				<path id="Layer" fill-rule="evenodd" class="s4" d="m1355.8 1056.4c0 171.1-141.9 309.7-316.8 309.7-174.9 0-316.7-138.6-316.7-309.7 0-171.1 141.8-309.7 316.7-309.7 174.9 0 316.8 138.6 316.8 309.7zm-62.9 10.3c0-130.1-105.4-235.5-235.5-235.5-130.1 0-235.6 105.5-235.6 235.5 0 130.1 105.5 235.6 235.6 235.6 130.1 0 235.5-105.5 235.5-235.6z"/>
				<path id="Layer" fill-rule="evenodd" class="s5" d="m1795.5 917.8c-29 64-96.3 111.1-96.3 184.8 0 106.2 11 187.3-31 277.6-49.9 107.5-180.4 82.3-274.6 152.3-117.5 87.2-100.7 249.5-300.8 243.9-146.2-4.1-228-133.2-348.5-174.9-66.5-23-158.4-2.6-241.9-25.9-58.3-16.4-112.5-54-151.2-142.5-24.3-55.7-24.3-102.6-13.7-145 20.2-81 78.8-145.2 78.8-220.9 0-101.4-61.4-194.1-58.1-280.3 0.8-22.6 6-44.7 18-66.4 24.1-43.6 47.7-73.8 70.9-94.9 83.9-76.2 163.1-34.2 245.6-82.9 81.1-48 154.9-165.3 244.5-219.3 26.5-16 54.5-26.5 84.5-27.8 66.3-3.1 118.9 8.6 162.5 28.9 123.9 57.8 174.6 185.4 258 241.7 72.5 49 171.6 42.5 258.7 109.6 25.8 19.9 50.6 46.2 73.2 82.4 43.1 68.6 40.4 117.7 21.4 159.6zm-502.6 148.9c0-130-105.4-235.5-235.5-235.5-130.1 0-235.6 105.5-235.6 235.5 0 130.1 105.5 235.6 235.6 235.6 130.1 0 235.5-105.5 235.5-235.6z"/>
			</g>
			<g id="Layer">
				<path id="Layer" class="s6" d="m1203.7 1345.2l-0.6-1.2c-5-10.3-1.2-22.6 8.7-28.3 78.5-44.8 123.3-117.7 133.4-217 5.6-55.6-1.4-105.2-6.6-131.2-2.1-11.1 4.6-21.9 15.4-25l1.4-0.4c12.1-3.4 24.7 4.2 27.1 16.7 5.8 29.1 13.4 83.2 7.2 144.4-11.5 113.1-65.2 199.5-155.7 251.3-10.9 6.3-24.8 2-30.3-9.3z"/>
				<path id="Layer" class="s6" d="m1292.8 883.3c-3-4.3-6.2-8.7-9.5-12.9-7-9.1-5.8-22 2.8-29.6 9.4-8.2 23.8-6.9 31.4 2.9 3.5 4.6 7.3 9.7 10.9 14.9 7.7 11.2 3.4 26.6-9 32.1-9.5 4.3-20.7 1.2-26.6-7.4z"/>
			</g>
		</g>
		<g id="Layer">
			<g id="Layer">
				<path id="Layer" class="s7" d="m914.8 701.9h-97.8c-13.1 0-23.9-10.7-23.9-23.9 0-13.1 10.8-23.9 23.9-23.9h97.8c13.2 0 23.9 10.8 23.9 23.9 0 13.2-10.7 23.9-23.9 23.9z"/>
				<path id="Layer" class="s7" d="m1190.5 529.1h-97.8c-13.2 0-23.9-10.7-23.9-23.9 0-13.1 10.7-23.9 23.9-23.9h97.8c13.1 0 23.9 10.8 23.9 23.9 0 13.2-10.8 23.9-23.9 23.9z"/>
				<path id="Layer" class="s7" d="m1243.6 672.1l-82.6 52.3c-11.1 7-25.9 3.7-33-7.5-7-11.1-3.7-25.9 7.4-32.9l82.7-52.3c11.1-7.1 25.9-3.7 33 7.4 7 11.1 3.7 25.9-7.5 33z"/>
				<path id="Layer" class="s7" d="m606.6 784.4l-82.7 52.3c-11.1 7-25.9 3.7-33-7.5-7-11.1-3.6-25.9 7.5-32.9l82.6-52.3c11.1-7.1 26-3.7 33 7.4 7 11.1 3.7 25.9-7.4 33z"/>
				<path id="Layer" class="s7" d="m1635 1064.5l-82.6 52.3c-11.1 7-26 3.7-33-7.4-7-11.1-3.7-25.9 7.4-33l82.7-52.3c11.1-7 25.9-3.7 32.9 7.4 7.1 11.1 3.7 26-7.4 33z"/>
				<path id="Layer" class="s7" d="m1015.6 1492.6l-84.7-48.9c-11.4-6.6-15.3-21.3-8.8-32.7 6.6-11.3 21.3-15.3 32.7-8.7l84.7 48.9c11.4 6.6 15.3 21.3 8.7 32.6-6.5 11.4-21.2 15.4-32.6 8.8z"/>
				<path id="Layer" class="s7" d="m772.4 923.2l-93.9 27.3c-12.6 3.7-25.9-3.6-29.6-16.2-3.7-12.7 3.6-26 16.3-29.7l93.9-27.3c12.6-3.7 25.9 3.7 29.6 16.3 3.7 12.6-3.7 25.9-16.3 29.6z"/>
				<path id="Layer" class="s7" d="m572.2 1252.4l-69.2-69.1c-9.3-9.3-9.3-24.5 0-33.8 9.3-9.3 24.5-9.3 33.8 0l69.2 69.1c9.3 9.3 9.3 24.5 0 33.8-9.3 9.3-24.5 9.3-33.8 0z"/>
				<path id="Layer" class="s7" d="m1555.7 1352.1l-93.7-28c-12.6-3.8-19.8-17.1-16-29.7 3.7-12.6 17.1-19.9 29.7-16.1l93.7 28c12.6 3.8 19.8 17.1 16.1 29.7-3.8 12.6-17.2 19.9-29.8 16.1z"/>
				<path id="Layer" class="s7" d="m674.2 1471.3h-97.8c-13.2 0-23.9-10.7-23.9-23.9 0-13.1 10.7-23.9 23.9-23.9h97.8c13.1 0 23.9 10.8 23.9 23.9 0 13.2-10.8 23.9-23.9 23.9z"/>
				<path id="Layer" class="s7" d="m1541.1 864.6l-79-57.7c-10.6-7.8-12.9-22.8-5.2-33.4 7.8-10.6 22.8-13 33.4-5.2l79 57.7c10.6 7.8 12.9 22.8 5.2 33.4-7.8 10.6-22.8 13-33.4 5.2z"/>
				<path id="Layer" class="s7" d="m1153.3 1563.6l61-76.5c8.1-10.3 23.3-12 33.5-3.8 10.3 8.2 12 23.3 3.9 33.6l-61 76.5c-8.1 10.3-23.3 12-33.5 3.8-10.3-8.2-12-23.3-3.9-33.6z"/>
			</g>
			<g id="Layer">
				<g id="Layer">
					<path id="Layer" class="s8" d="m885.1 687.9h-97.8c-13.1 0-23.9-10.8-23.9-23.9 0-13.2 10.8-23.9 23.9-23.9h97.8c13.1 0 23.9 10.7 23.9 23.9 0 13.1-10.8 23.9-23.9 23.9z"/>
					<path id="Layer" fill-rule="evenodd" class="s9" d="m885.1 694.9h-97.8c-17.1 0-30.9-13.9-30.9-30.9 0-17.1 13.8-31 30.9-31h97.8c17 0 30.9 13.9 30.9 31 0 17-13.8 30.9-30.9 30.9zm-97.8-47.8c-9.3 0-16.9 7.6-16.9 16.9 0 9.3 7.6 16.8 16.9 16.8h97.8c9.3 0 16.9-7.5 16.9-16.8 0-9.3-7.6-16.9-16.9-16.9z"/>
				</g>
				<g id="Layer">
					<path id="Layer" class="s10" d="m1160.7 515.1h-97.8c-13.1 0-23.9-10.8-23.9-23.9 0-13.2 10.8-23.9 23.9-23.9h97.8c13.2 0 23.9 10.7 23.9 23.9 0 13.1-10.7 23.9-23.9 23.9z"/>
					<path id="Layer" fill-rule="evenodd" class="s9" d="m1160.7 522.1h-97.8c-17 0-30.9-13.9-30.9-30.9 0-17.1 13.9-30.9 30.9-30.9h97.8c17.1 0 30.9 13.8 30.9 30.9 0 17-13.8 30.9-30.9 30.9zm-97.8-47.8c-9.3 0-16.9 7.6-16.9 16.9 0 9.3 7.6 16.9 16.9 16.9h97.8c9.3 0 16.9-7.6 16.9-16.9 0-9.3-7.6-16.9-16.9-16.9z"/>
				</g>
				<g id="Layer">
					<path id="Layer" class="s11" d="m1213.9 658l-82.6 52.3c-11.2 7-26 3.7-33-7.4-7-11.1-3.7-26 7.4-33l82.6-52.3c11.1-7 26-3.7 33 7.4 7 11.1 3.7 26-7.4 33z"/>
					<path id="Layer" fill-rule="evenodd" class="s9" d="m1118.6 721q-3.5 0-6.9-0.8c-8.1-1.8-15-6.6-19.4-13.6-9.1-14.4-4.8-33.5 9.6-42.6l82.7-52.3c14.4-9.1 33.5-4.8 42.6 9.6 4.5 6.9 5.9 15.2 4.1 23.3-1.9 8.1-6.7 14.9-13.6 19.3l-82.7 52.3c-5 3.2-10.6 4.8-16.4 4.8zm82.5-100.1c-3.1 0-6.2 0.9-9 2.6l-82.6 52.3c-7.9 5-10.3 15.5-5.3 23.3 2.4 3.8 6.2 6.5 10.6 7.4 4.4 1 8.9 0.3 12.7-2.1l82.6-52.3c3.8-2.4 6.5-6.2 7.5-10.6 0.9-4.4 0.2-8.9-2.2-12.7-3.2-5.1-8.7-7.9-14.3-7.9z"/>
				</g>
				<g id="Layer">
					<path id="Layer" class="s12" d="m576.8 770.3l-82.6 52.3c-11.1 7-26 3.7-33-7.4-7-11.1-3.7-26 7.4-33l82.7-52.3c11.1-7 25.9-3.7 32.9 7.4 7.1 11.1 3.7 26-7.4 33z"/>
					<path id="Layer" fill-rule="evenodd" class="s9" d="m481.4 833.3c-10.2 0-20.3-5.1-26.1-14.4-9.2-14.4-4.8-33.5 9.6-42.6l82.6-52.3c14.4-9.1 33.6-4.8 42.7 9.6 4.4 6.9 5.8 15.2 4 23.3-1.8 8.1-6.7 14.9-13.6 19.3l-82.7 52.3c-5.1 3.3-10.8 4.8-16.5 4.8zm82.6-100.1c-3.1 0-6.2 0.9-9 2.6l-82.6 52.3c-7.9 5-10.2 15.5-5.3 23.3 5 7.9 15.5 10.2 23.3 5.3l82.7-52.3c3.8-2.4 6.4-6.2 7.4-10.6 1-4.4 0.2-8.9-2.2-12.7-3.2-5.1-8.7-7.9-14.3-7.9z"/>
				</g>
				<g id="Layer">
					<path id="Layer" class="s10" d="m1605.3 1050.5l-82.7 52.3c-11.1 7-25.9 3.6-33-7.5-7-11.1-3.6-25.9 7.5-32.9l82.6-52.3c11.1-7.1 26-3.7 33 7.4 7 11.1 3.7 25.9-7.4 33z"/>
					<path id="Layer" fill-rule="evenodd" class="s9" d="m1509.9 1113.5c-10.3 0-20.3-5.1-26.2-14.4-4.4-7-5.8-15.2-4-23.3 1.8-8.1 6.7-15 13.6-19.4l82.7-52.3c14.4-9.1 33.5-4.8 42.6 9.6 9.1 14.4 4.8 33.6-9.6 42.7l-82.6 52.3c-5.1 3.2-10.9 4.8-16.5 4.8zm82.5-100.1c-3.1 0-6.2 0.9-8.9 2.6l-82.7 52.3c-3.8 2.4-6.4 6.1-7.4 10.6-1 4.4-0.2 8.9 2.2 12.7 5 7.8 15.4 10.2 23.3 5.2l82.6-52.3c7.9-5 10.2-15.4 5.2-23.3-2.3-3.8-6.1-6.4-10.5-7.4q-1.9-0.4-3.8-0.4z"/>
				</g>
				<g id="Layer">
					<path id="Layer" class="s11" d="m985.8 1478.5l-84.7-48.9c-11.3-6.5-15.3-21.2-8.7-32.6 6.6-11.4 21.3-15.3 32.6-8.8l84.7 48.9c11.4 6.6 15.4 21.3 8.8 32.7-6.6 11.4-21.3 15.3-32.7 8.7z"/>
					<path id="Layer" fill-rule="evenodd" class="s9" d="m997.7 1488.7c-5.2 0-10.5-1.3-15.4-4.1l-84.7-48.9c-7.1-4.1-12.2-10.8-14.4-18.8-2.1-8-1-16.3 3.1-23.4 8.5-14.8 27.5-19.9 42.2-11.3l84.7 48.9c7.2 4.1 12.3 10.7 14.4 18.7 2.2 8 1.1 16.4-3 23.5-5.8 9.9-16.2 15.4-26.9 15.4zm-8.4-16.3c8.1 4.7 18.4 1.9 23.1-6.1 2.2-3.9 2.8-8.5 1.7-12.8-1.2-4.4-4-8-7.9-10.3l-84.7-48.9c-8-4.6-18.4-1.9-23 6.2-2.3 3.9-2.9 8.4-1.7 12.8 1.2 4.4 4 8 7.8 10.2z"/>
				</g>
				<g id="Layer">
					<path id="Layer" class="s10" d="m742.7 909.1l-93.9 27.4c-12.7 3.6-26-3.7-29.7-16.3-3.6-12.6 3.7-26 16.3-29.6l93.9-27.4c12.6-3.6 26 3.7 29.6 16.3 3.7 12.6-3.6 26-16.2 29.6z"/>
					<path id="Layer" fill-rule="evenodd" class="s9" d="m642.1 944.4c-5.1 0-10.2-1.2-14.9-3.8-7.2-4-12.5-10.5-14.8-18.4-2.3-7.9-1.4-16.3 2.6-23.5 4-7.3 10.5-12.6 18.4-14.9l94-27.3c16.3-4.8 33.5 4.7 38.3 21 4.7 16.4-4.7 33.6-21.1 38.4l-93.9 27.3c-2.8 0.8-5.7 1.2-8.6 1.2zm93.9-75.1q-2.4 0-4.7 0.7l-93.9 27.3c-4.3 1.3-7.9 4.1-10.1 8.1-2.2 4-2.7 8.5-1.4 12.8 1.2 4.3 4.1 7.9 8.1 10.1 3.9 2.2 8.5 2.7 12.8 1.4l93.9-27.3c8.9-2.6 14.1-12 11.5-20.9-2.1-7.4-8.9-12.2-16.2-12.2z"/>
				</g>
				<g id="Layer">
					<path id="Layer" class="s8" d="m542.4 1238.4l-69.1-69.2c-9.3-9.3-9.3-24.5 0-33.8 9.3-9.3 24.5-9.3 33.8 0l69.1 69.2c9.3 9.3 9.3 24.5 0 33.8-9.2 9.3-24.5 9.3-33.8 0z"/>
					<path id="Layer" fill-rule="evenodd" class="s9" d="m559.3 1252.4c-8.2 0-16-3.2-21.8-9.1l-69.2-69.1c-5.8-5.8-9-13.6-9-21.9 0-8.3 3.2-16 9-21.8 5.8-5.9 13.6-9.1 21.9-9.1 8.3 0 16 3.2 21.9 9.1l69.1 69.1c5.8 5.8 9 13.6 9 21.9 0 8.3-3.2 16-9 21.8-5.8 5.9-13.6 9.1-21.9 9.1zm-69.1-116.9c-4.5 0-8.8 1.7-11.9 4.9-3.2 3.2-5 7.4-5 11.9 0 4.5 1.8 8.8 5 12l69.1 69.1c3.2 3.2 7.4 4.9 11.9 4.9 4.6 0 8.8-1.7 12-4.9 3.1-3.2 4.9-7.4 4.9-11.9 0-4.6-1.8-8.8-4.9-12l-69.2-69.1c-3.1-3.2-7.4-4.9-11.9-4.9z"/>
				</g>
				<g id="Layer">
					<path id="Layer" class="s12" d="m1526 1338l-93.7-28c-12.6-3.7-19.8-17.1-16.1-29.7 3.8-12.6 17.2-19.8 29.8-16.1l93.7 28c12.6 3.8 19.8 17.2 16 29.8-3.7 12.6-17.1 19.8-29.7 16z"/>
					<path id="Layer" fill-rule="evenodd" class="s9" d="m1532.8 1346.1c-2.9 0-5.9-0.5-8.8-1.3l-93.7-28c-16.4-4.9-25.7-22.2-20.8-38.5 2.3-7.9 7.6-14.4 14.9-18.3 7.3-4 15.7-4.8 23.6-2.5l93.7 28c7.9 2.4 14.4 7.7 18.3 15 3.9 7.2 4.8 15.6 2.4 23.5-2.3 7.9-7.6 14.4-14.9 18.3-4.6 2.5-9.6 3.8-14.7 3.8zm-93.7-75.8c-2.7 0-5.5 0.7-8 2-4 2.2-6.9 5.7-8.2 10-2.6 8.9 2.5 18.3 11.4 21l93.7 28c4.3 1.3 8.8 0.8 12.8-1.3 4-2.2 6.9-5.7 8.2-10 1.3-4.3 0.8-8.9-1.4-12.9-2.1-4-5.7-6.9-9.9-8.1l-93.8-28q-2.3-0.7-4.8-0.7z"/>
				</g>
				<g id="Layer">
					<path id="Layer" class="s12" d="m644.4 1457.3h-97.8c-13.1 0-23.9-10.8-23.9-23.9 0-13.2 10.8-23.9 23.9-23.9h97.8c13.2 0 23.9 10.7 23.9 23.9 0 13.1-10.7 23.9-23.9 23.9z"/>
					<path id="Layer" fill-rule="evenodd" class="s9" d="m644.4 1464.3h-97.8c-17 0-30.9-13.9-30.9-30.9 0-17.1 13.9-30.9 30.9-30.9h97.8c17.1 0 30.9 13.8 30.9 30.9 0 17-13.8 30.9-30.9 30.9zm-97.8-47.8c-9.3 0-16.9 7.6-16.9 16.9 0 9.3 7.6 16.9 16.9 16.9h97.8c9.3 0 16.9-7.6 16.9-16.9 0-9.3-7.6-16.9-16.9-16.9z"/>
				</g>
				<g id="Layer">
					<path id="Layer" class="s11" d="m1511.3 850.5l-78.9-57.7c-10.6-7.7-13-22.8-5.2-33.4 7.7-10.6 22.8-12.9 33.4-5.2l78.9 57.8c10.7 7.7 13 22.7 5.2 33.3-7.7 10.7-22.7 13-33.4 5.2z"/>
					<path id="Layer" fill-rule="evenodd" class="s9" d="m1525.4 862.2c-6.3 0-12.7-2-18.2-6l-79-57.7c-6.6-4.9-11-12-12.2-20.2-1.3-8.2 0.7-16.4 5.5-23 4.9-6.7 12.1-11 20.2-12.3 8.2-1.3 16.4 0.7 23 5.6l79 57.7c13.8 10 16.8 29.4 6.7 43.2-6 8.3-15.5 12.7-25 12.7zm-9.9-17.3c7.5 5.5 18.1 3.8 23.6-3.7 5.5-7.5 3.8-18.1-3.7-23.6l-79-57.7c-3.6-2.6-8-3.7-12.5-3-4.5 0.7-8.4 3.1-11 6.7-2.7 3.6-3.8 8-3.1 12.5 0.7 4.5 3.1 8.4 6.7 11.1z"/>
				</g>
				<g id="Layer">
					<path id="Layer" class="s8" d="m1123.6 1549.6l60.9-76.5c8.2-10.3 23.3-12 33.6-3.8 10.3 8.1 12 23.3 3.8 33.5l-60.9 76.6c-8.2 10.2-23.3 12-33.6 3.8-10.3-8.2-12-23.3-3.8-33.6z"/>
					<path id="Layer" fill-rule="evenodd" class="s9" d="m1142.3 1595.4c-6.8 0-13.6-2.2-19.3-6.7-6.4-5.2-10.5-12.5-11.4-20.7-0.9-8.3 1.4-16.3 6.5-22.8l60.9-76.5c5.1-6.4 12.5-10.5 20.7-11.4 8.2-1 16.3 1.3 22.8 6.5 6.4 5.1 10.5 12.4 11.4 20.7 0.9 8.2-1.4 16.3-6.5 22.7l-60.9 76.5c-6.1 7.7-15.1 11.7-24.2 11.7zm61-124.3q-1 0-2 0.1c-4.5 0.5-8.5 2.7-11.3 6.2l-60.9 76.6c-2.8 3.5-4.1 7.9-3.5 12.4 0.5 4.5 2.7 8.5 6.2 11.3 3.5 2.8 7.9 4 12.4 3.5 4.5-0.5 8.5-2.7 11.3-6.2l60.9-76.5c2.8-3.5 4.1-7.9 3.6-12.4-0.6-4.5-2.8-8.6-6.3-11.3-3-2.4-6.6-3.7-10.4-3.7z"/>
				</g>
			</g>
		</g>
		<g id="Layer">
			<g id="Layer">
				<path id="Layer" class="s7" d="m946.6 570.4c-12.8 0-23.2-10.3-23.2-23.2 0-12.8 10.4-23.2 23.2-23.2 12.9 0 23.2 10.4 23.2 23.2 0 12.9-10.3 23.2-23.2 23.2z"/>
				<path id="Layer" class="s7" d="m712.5 808.4c-12.9 0-23.2-10.4-23.2-23.2 0-12.9 10.3-23.2 23.2-23.2 12.8 0 23.2 10.3 23.2 23.2 0 12.8-10.4 23.2-23.2 23.2z"/>
				<path id="Layer" class="s7" d="m479.2 1379.7c-12.9 0-23.3-10.4-23.3-23.2 0-12.8 10.4-23.2 23.3-23.2 12.8 0 23.2 10.4 23.2 23.2 0 12.8-10.4 23.2-23.2 23.2z"/>
				<path id="Layer" class="s7" d="m736.7 1137.7c-12.8 0-23.2-10.3-23.2-23.2 0-12.8 10.4-23.2 23.2-23.2 12.8 0 23.2 10.4 23.2 23.2 0 12.9-10.4 23.2-23.2 23.2z"/>
				<path id="Layer" class="s7" d="m859.7 1331.4c-11.9 5-25.4-0.5-30.4-12.4-5-11.8 0.5-25.4 12.4-30.4 11.8-4.9 25.4 0.6 30.4 12.4 4.9 11.9-0.6 25.4-12.4 30.4z"/>
				<path id="Layer" class="s7" d="m873.8 1595.6c-12.8 0-23.2-10.3-23.2-23.2 0-12.8 10.4-23.2 23.2-23.2 12.9 0 23.2 10.4 23.2 23.2 0 12.9-10.3 23.2-23.2 23.2z"/>
				<path id="Layer" class="s7" d="m1346.7 1465.5c-12.9 0-23.3-10.4-23.3-23.2 0.1-12.8 10.4-23.2 23.3-23.2 12.8 0 23.2 10.4 23.2 23.2 0 12.8-10.4 23.2-23.2 23.2z"/>
				<path id="Layer" class="s7" d="m1608.7 1233.1c-12.8 0-23.2-10.4-23.2-23.2 0-12.9 10.4-23.2 23.2-23.2 12.9 0 23.3 10.3 23.3 23.2 0 12.8-10.4 23.2-23.3 23.2z"/>
				<path id="Layer" class="s7" d="m1735.7 889.3c-2 12.6-13.9 21.2-26.6 19.2-12.7-2.1-21.3-14-19.2-26.7 2-12.6 14-21.2 26.6-19.2 12.7 2.1 21.3 14 19.2 26.7z"/>
				<path id="Layer" class="s7" d="m1373.4 734.1c-12.8 0-23.2-10.4-23.2-23.3 0-12.8 10.4-23.2 23.2-23.2 12.9 0 23.3 10.4 23.3 23.2 0 12.9-10.4 23.3-23.3 23.3z"/>
				<path id="Layer" class="s7" d="m1070.2 422c-12.8 0-23.2-10.4-23.2-23.2 0-12.9 10.4-23.2 23.2-23.2 12.9 0 23.3 10.3 23.3 23.2 0 12.8-10.4 23.2-23.3 23.2z"/>
				<path id="Layer" class="s7" d="m502.4 1013.2c-12.9 0-23.2-10.3-23.2-23.2 0-12.8 10.3-23.2 23.2-23.2 12.8 0 23.2 10.4 23.2 23.2 0 12.9-10.4 23.2-23.2 23.2z"/>
			</g>
			<g id="Layer">
				<g id="Layer">
					<path id="Layer" class="s13" d="m932.2 561.5c-12.8 0-23.2-10.4-23.2-23.2 0-12.8 10.4-23.2 23.2-23.2 12.9 0 23.2 10.4 23.2 23.2 0 12.8-10.3 23.2-23.2 23.2z"/>
					<path id="Layer" fill-rule="evenodd" class="s9" d="m932.2 566.4c-15.5 0-28.1-12.6-28.1-28.1 0-15.5 12.6-28.1 28.1-28.1 15.5 0 28.1 12.6 28.1 28.1 0 15.5-12.6 28.1-28.1 28.1zm0-46.4c-10.1 0-18.3 8.2-18.3 18.3 0 10.1 8.2 18.3 18.3 18.3 10.1 0 18.3-8.2 18.3-18.3 0-10.1-8.2-18.3-18.3-18.3z"/>
				</g>
				<g id="Layer">
					<path id="Layer" class="s13" d="m707 797.7c-11.9 4.9-25.4-0.7-30.4-12.6-4.9-11.8 0.7-25.4 12.6-30.3 11.9-4.9 25.4 0.7 30.3 12.6 5 11.8-0.7 25.4-12.5 30.3z"/>
					<path id="Layer" fill-rule="evenodd" class="s9" d="m698.1 804.4c-15.5 0-28.1-12.6-28.1-28.1 0-15.5 12.6-28.2 28.1-28.2 15.5 0 28.1 12.7 28.1 28.2 0 15.5-12.6 28.1-28.1 28.1zm0-46.5c-10.1 0-18.4 8.3-18.4 18.4 0 10.1 8.3 18.3 18.4 18.3 10.1 0 18.3-8.2 18.3-18.3 0-10.1-8.2-18.4-18.3-18.4z"/>
				</g>
				<g id="Layer">
					<path id="Layer" class="s13" d="m473.8 1369c-11.8 4.9-25.4-0.6-30.4-12.4-5-11.9 0.6-25.4 12.4-30.4 11.8-5 25.4 0.5 30.4 12.4 5 11.8-0.5 25.4-12.4 30.4z"/>
					<path id="Layer" fill-rule="evenodd" class="s9" d="m464.8 1375.7c-15.5 0-28.2-12.6-28.2-28.1 0-15.5 12.7-28.1 28.2-28.1 15.5 0 28.1 12.6 28.1 28.1 0 15.5-12.6 28.1-28.1 28.1zm0-46.5c-10.2 0-18.4 8.3-18.4 18.4 0 10.1 8.2 18.3 18.4 18.3 10.1 0 18.3-8.2 18.3-18.3 0-10.1-8.2-18.4-18.3-18.4z"/>
				</g>
				<g id="Layer">
					<path id="Layer" class="s13" d="m744.9 1111c-3 12.5-15.5 20.2-28 17.2-12.5-2.9-20.1-15.4-17.2-27.9 3-12.5 15.5-20.2 28-17.2 12.5 2.9 20.2 15.5 17.2 27.9z"/>
					<path id="Layer" fill-rule="evenodd" class="s9" d="m722.3 1133.7c-15.5 0-28.1-12.6-28.1-28.1 0-15.5 12.6-28.1 28.1-28.1 15.5 0 28.1 12.6 28.1 28.1 0 15.5-12.6 28.1-28.1 28.1zm0-46.4c-10.1 0-18.3 8.2-18.3 18.3 0 10.1 8.2 18.3 18.3 18.3 10.1 0 18.3-8.2 18.3-18.3 0-10.1-8.2-18.3-18.3-18.3z"/>
				</g>
				<g id="Layer">
					<path id="Layer" class="s13" d="m836.2 1324.4c-12.8 0-23.2-10.4-23.2-23.3 0-12.8 10.4-23.2 23.2-23.2 12.8 0 23.2 10.4 23.2 23.2 0 12.9-10.4 23.3-23.2 23.3z"/>
					<path id="Layer" fill-rule="evenodd" class="s9" d="m836.2 1329.2c-15.5 0-28.1-12.6-28.1-28.1 0-15.5 12.6-28.1 28.1-28.1 15.5 0 28.1 12.6 28.1 28.1 0 15.5-12.6 28.1-28.1 28.1zm0-46.4c-10.1 0-18.3 8.2-18.3 18.3 0 10.1 8.2 18.4 18.3 18.4 10.1 0 18.3-8.3 18.3-18.4 0-10.1-8.2-18.3-18.3-18.3z"/>
				</g>
				<g id="Layer">
					<path id="Layer" class="s13" d="m859.4 1586.7c-12.8 0-23.2-10.4-23.2-23.2 0-12.8 10.4-23.2 23.2-23.2 12.9 0 23.2 10.4 23.2 23.2 0 12.8-10.3 23.2-23.2 23.2z"/>
					<path id="Layer" fill-rule="evenodd" class="s9" d="m859.4 1591.6c-15.5 0-28.1-12.6-28.1-28.1 0-15.5 12.6-28.1 28.1-28.1 15.5 0 28.1 12.6 28.1 28.1 0 15.5-12.6 28.1-28.1 28.1zm0-46.4c-10.1 0-18.3 8.2-18.3 18.3 0 10.1 8.2 18.3 18.3 18.3 10.1 0 18.3-8.2 18.3-18.3 0-10.1-8.2-18.3-18.3-18.3z"/>
				</g>
				<g id="Layer">
					<path id="Layer" class="s13" d="m1348.7 1449.8c-9.1 9.1-23.8 9.1-32.9 0-9.1-9.1-9.1-23.8 0-32.8 9.1-9.1 23.8-9.1 32.9 0 9 9 9 23.7 0 32.8z"/>
					<path id="Layer" fill-rule="evenodd" class="s9" d="m1332.3 1461.5c-15.5 0-28.2-12.6-28.2-28.1 0-15.5 12.7-28.1 28.2-28.1 15.5 0 28.1 12.6 28.1 28.1 0 15.5-12.6 28.1-28.1 28.1zm0-46.4c-10.1 0-18.4 8.2-18.4 18.3 0 10.1 8.3 18.3 18.4 18.3 10.1 0 18.3-8.2 18.3-18.3 0-10.1-8.2-18.3-18.3-18.3z"/>
				</g>
				<g id="Layer">
					<path id="Layer" class="s13" d="m1603.3 1222.4c-11.9 4.9-25.5-0.7-30.4-12.6-4.9-11.8 0.7-25.4 12.6-30.3 11.9-4.9 25.4 0.7 30.3 12.6 5 11.8-0.7 25.4-12.5 30.3z"/>
					<path id="Layer" fill-rule="evenodd" class="s9" d="m1594.3 1229.1c-15.5 0-28.1-12.6-28.1-28.1 0-15.5 12.6-28.2 28.1-28.2 15.5 0 28.1 12.7 28.1 28.2 0 15.5-12.6 28.1-28.1 28.1zm0-46.5c-10.1 0-18.3 8.3-18.3 18.4 0 10.1 8.2 18.3 18.3 18.3 10.1 0 18.4-8.2 18.4-18.3 0-10.1-8.3-18.4-18.4-18.4z"/>
				</g>
				<g id="Layer">
					<path id="Layer" class="s13" d="m1698.4 899.9c-12.9 0-23.3-10.4-23.3-23.3 0-12.8 10.4-23.2 23.3-23.2 12.8 0 23.2 10.4 23.2 23.2 0 12.9-10.4 23.3-23.2 23.3z"/>
					<path id="Layer" fill-rule="evenodd" class="s9" d="m1698.4 904.8c-15.5 0-28.2-12.7-28.2-28.2 0-15.5 12.7-28.1 28.2-28.1 15.5 0 28.1 12.6 28.1 28.1 0 15.5-12.6 28.2-28.1 28.2zm0-46.5c-10.1 0-18.4 8.2-18.4 18.3 0 10.1 8.3 18.4 18.4 18.4 10.1 0 18.3-8.3 18.3-18.4 0-10.1-8.2-18.3-18.3-18.3z"/>
				</g>
				<g id="Layer">
					<path id="Layer" class="s13" d="m1359 725.1c-12.8 0-23.2-10.3-23.2-23.2 0-12.8 10.4-23.2 23.2-23.2 12.9 0 23.2 10.4 23.2 23.2 0 12.9-10.3 23.2-23.2 23.2z"/>
					<path id="Layer" fill-rule="evenodd" class="s9" d="m1359 730c-15.5 0-28.1-12.6-28.1-28.1 0-15.5 12.6-28.1 28.1-28.1 15.5 0 28.1 12.6 28.1 28.1 0 15.5-12.6 28.1-28.1 28.1zm0-46.4c-10.1 0-18.3 8.2-18.3 18.3 0 10.1 8.2 18.3 18.3 18.3 10.1 0 18.4-8.2 18.4-18.3 0-10.1-8.3-18.3-18.4-18.3z"/>
				</g>
				<g id="Layer">
					<path id="Layer" class="s13" d="m1055.8 413.1c-12.8 0-23.2-10.4-23.2-23.2 0-12.9 10.4-23.3 23.2-23.3 12.9 0 23.3 10.4 23.3 23.3 0 12.8-10.4 23.2-23.3 23.2z"/>
					<path id="Layer" fill-rule="evenodd" class="s9" d="m1055.8 418c-15.5 0-28.1-12.6-28.1-28.1 0-15.5 12.6-28.2 28.1-28.2 15.5 0 28.2 12.7 28.2 28.2 0 15.5-12.7 28.1-28.2 28.1zm0-46.5c-10.1 0-18.3 8.3-18.3 18.4 0 10.1 8.2 18.3 18.3 18.3 10.1 0 18.4-8.2 18.4-18.3 0-10.1-8.3-18.4-18.4-18.4z"/>
				</g>
				<g id="Layer">
					<path id="Layer" class="s13" d="m488 1004.3c-12.9 0-23.2-10.4-23.2-23.2 0-12.8 10.3-23.2 23.2-23.2 12.8 0 23.2 10.4 23.2 23.2 0 12.8-10.4 23.2-23.2 23.2z"/>
					<path id="Layer" fill-rule="evenodd" class="s9" d="m488 1009.2c-15.5 0-28.1-12.6-28.1-28.1 0-15.5 12.6-28.1 28.1-28.1 15.5 0 28.1 12.6 28.1 28.1 0 15.5-12.6 28.1-28.1 28.1zm0-46.4c-10.1 0-18.4 8.2-18.4 18.3 0 10.1 8.3 18.3 18.4 18.3 10.1 0 18.3-8.2 18.3-18.3 0-10.1-8.2-18.3-18.3-18.3z"/>
				</g>
			</g>
		</g>
	</g>
</svg>